# AST/ASF file generated using VICON BodyLanguage
# -----------------------------------------------
:version 1.10
:name VICON
:units
  mass 1.0
  length 0.45
  angle deg
:documentation
   .ast/.asf automatically generated from VICON data using
   VICON BodyBuilder and BodyLanguage model FoxedUp or BRILLIANT.MOD
:root
   order TX TY TZ RX RY RZ
   axis XYZ
   position 0 0 0  
   orientation 0 0 0 
:bonedata
  begin
     id 1 
     name lhipjoint
     direction 0.521452 -0.77106 0.36545 
     length 2.0933 
     axis 0 0 0  XYZ
  end
  begin
     id 2 
     name lfemur
     direction 0.34202 -0.939693 0  
     length 6.83441  
     axis 0 0 20  XYZ
    dof rx ry rz
    limits (-160.0 20.0)
           (-70.0 70.0)
           (-60.0 70.0)
  end
  begin
     id 3 
     name ltibia
     direction 0.34202 -0.939693 0   
     length 7.28749   
     axis 0 0 20   XYZ
    dof rx
    limits (-10.0 170.0)
  end
  begin
     id 4 
     name lfoot
     direction 0.100608 -0.276418 0.955757   
     length 1.52195   
     axis -90 7.62852e-016 20   XYZ
    dof rx rz
    limits (-45.0 90.0)
           (-70.0 20.0)
  end
  begin
     id 5 
     name ltoes
     direction 1.53558e-011 -4.21907e-011 1   
     length 0.770459   
     axis -90 7.62852e-016 20   XYZ
    dof rx
    limits (-90.0 20.0)
  end
  begin
     id 6 
     name rhipjoint
     direction -0.488071 -0.788702 0.373812   
     length 2.04648  
     axis 0 0 0  XYZ 
  end
  begin
     id 7 
     name rfemur
     direction -0.34202 -0.939693 0   
     length 6.92583   
     axis 0 0 -20   XYZ
    dof rx ry rz
    limits (-160.0 20.0)
           (-70.0 70.0)
           (-70.0 60.0)
  end
  begin
     id 8 
     name rtibia
     direction -0.34202 -0.939693 0   
     length 7.41043   
     axis 0 0 -20   XYZ
    dof rx
    limits (-10.0 170.0)
 end
 begin
     id 9 
     name rfoot
     direction -0.0784433 -0.215521 0.973343   
     length 1.67708  
     axis -90 -7.62852e-016 -20   XYZ
    dof rx rz
    limits (-45.0 90.0)
           (-20.0 70.0)
  end
  begin
     id 10 
     name rtoes
     direction -1.53551e-011 -4.21842e-011 1   
     length 0.849787   
     axis -90 -7.62852e-016 -20   XYZ
    dof rx
    limits (-90.0 20.0)
  end
  begin
     id 11 
     name lowerback
     direction -0.0122332 0.997575 -0.0685192   
     length 1.98724   
     axis 0 0 0   XYZ
    dof rx ry rz
    limits (-20.0 45.0)
           (-30.0 30.0)
           (-30.0 30.0)
  end
  begin
     id 12 
     name upperback
     direction 0.0182347 0.999724 -0.0148421   
     length 1.99029   
     axis 0 0 0   XYZ
    dof rx ry rz
    limits (-20.0 45.0)
           (-30.0 30.0)
           (-30.0 30.0)
  end
  begin
     id 13 
     name thorax
     direction 0.0242908 0.99956 0.0170184   
     length 1.99573   
     axis 0 0 0   XYZ
    dof rx ry rz
    limits (-20.0 45.0)
           (-30.0 30.0)
           (-30.0 30.0)
  end
  begin
     id 14 
     name lowerneck
     direction 0.0654488 0.985533 0.156338   
     length 1.4285   
     axis 0 0 0   XYZ
    dof rx ry rz
    limits (-20.0 45.0)
           (-30.0 30.0)
           (-30.0 30.0)
  end
  begin
     id 15 
     name upperneck
     direction -0.02953 0.998556 -0.0448842   
     length 1.44709   
     axis 0 0 0   XYZ
    dof rx ry rz
    limits (-20.0 45.0)
           (-30.0 30.0)
           (-30.0 30.0)
  end
  begin
     id 16
     name head
     direction -0.0155588 0.999386 -0.0314063  
     length 1.44689  
     axis 0 0 0   XYZ
    dof rx ry rz
    limits (-20.0 45.0)
           (-30.0 30.0)
           (-30.0 30.0)
  end
  begin
     id 17 
     name lclavicle
     direction 0.968229 0.236071 -0.0824755  
     length 3.60593  
     axis 0 0 0   XYZ
    dof ry rz
    limits (-20.0 10.0)
           (0.0 20.0)
  end
  begin
     id 18 
     name lhumerus
     direction 1 -4.48968e-011 7.8138e-029   
     length 5.06035   
     axis 180 -30 -90   XYZ
    dof rx ry rz
    limits (-60.0 90.0)
           (-90.0 90.0)
           (-90.0 90.0)
  end
  begin
     id 19
     name lradius
     direction 1 -4.48967e-011 9.02887e-028   
     length 3.1478   
     axis 180 -30 -90   XYZ
    dof rx
    limits (-10.0 170.0)
  end
  begin
     id 20
     name lwrist
     direction 1 -4.48961e-011 7.20928e-028   
     length 1.5739   
     axis -5.52449e-016 90 90   XYZ
    dof ry
    limits (-180.0 0.0)
 end
  begin
     id 21 
     name lhand
     direction 1 -4.48972e-011 1.44186e-027   
     length 0.606747   
     axis -9.20027e-016 90 90   XYZ
    dof rx rz
    limits (-90.0 90.0)
           (-45.0 45.0)
  end
  begin
     id 22 
     name lfingers
     direction 1 -4.48943e-011 2.88371e-027   
     length 0.489175   
     axis -1.84005e-015 90 90   XYZ
    dof rx
    limits (0.0 90.0)
  end
  begin
     id 23
     name lthumb
     direction 0.707107 -6.34917e-011 0.707107   
     length 0.70236   
     axis -90 45 2.85299e-015   XYZ
    dof rx rz
    limits (-45.0 45.0)
           (-45.0 45.0)
  end
  begin
     id 24 
     name rclavicle
     direction -0.978165 0.207816 0.0022268   
     length 3.35425  
     axis 0 0 0   XYZ 
    dof ry rz
    limits (-10.0 20.0)
           (-20.0 0.0)
  end
  begin
     id 25 
     name rhumerus
     direction -1 -4.48964e-011 -4.02159e-027  
     length 5.12273   
     axis 180 30 90   XYZ
    dof rx ry rz
    limits (-90.0 60.0)
           (-90.0 90.0)
           (-90.0 90.0)
  end
  begin
     id 26 
     name rradius
     direction -1 -4.48966e-011 1.62746e-027   
     length 3.422   
     axis 180 30 90   XYZ
    dof rx
    limits (-10.0 170.0)
  end
  begin
     id 27 
     name rwrist
     direction -1 -4.4896e-011 7.20928e-028   
     length 1.711   
     axis -5.52449e-016 -90 -90   XYZ
    dof ry
    limits (-180.0 0.0)
  end
  begin
     id 28
     name rhand
     direction -1 -4.48979e-011 1.44186e-027   
     length 0.704599   
     axis -9.20027e-016 -90 -90   XYZ
    dof rx rz
    limits (-90.0 90.0)
           (-45.0 45.0)
  end
  begin
     id 29
     name rfingers
     direction -1 -4.48962e-011 2.88371e-027   
     length 0.568066   
     axis -1.84005e-015 -90 -90   XYZ
    dof rx
    limits (0.0 90.0)
  end
  begin
     id 30
     name rthumb
     direction -0.707107 -6.34949e-011 0.707107   
     length 0.815633   
     axis -90 -45 -2.85299e-015   XYZ
    dof rx rz
    limits (-45.0 45.0)
           (-45.0 45.0)
  end
:hierarchy
  begin
    root lhipjoint rhipjoint lowerback
    lhipjoint lfemur
    lfemur ltibia
    ltibia lfoot
    lfoot ltoes
    rhipjoint rfemur
    rfemur rtibia
    rtibia rfoot
    rfoot rtoes
    lowerback upperback
    upperback thorax
    thorax lowerneck lclavicle rclavicle
    lowerneck upperneck
    upperneck head
    lclavicle lhumerus
    lhumerus lradius
    lradius lwrist
    lwrist lhand lthumb
    lhand lfingers
    rclavicle rhumerus
    rhumerus rradius
    rradius rwrist
    rwrist rhand rthumb
    rhand rfingers
  end

#!OML:ASF E:\id_vita\Project 1\Capture day 1\Session 1\Male1.ASF
:FULLY-SPECIFIED
:DEGREES
49
root -18.6164 15.5122 -1.77149 166.926 85.2204 163.42
lowerback -3.03033 -5.05102 -3.53688
upperback 0.982789 -6.64459 1.8292
thorax 3.32842 -3.40161 3.43383
lowerneck -9.15081 1.26198 4.17009
upperneck 2.86716 1.14281 1.72067
head 2.51598 0.696269 -0.112726
rclavicle 1.98288e-014 -1.19271e-015
rhumerus -136.366 -31.8619 70.6794
rradius 9.91765
rwrist 129.179
rhand -19.2774 37.6398
rfingers 7.12502
rthumb 7.03743 7.77677
lclavicle 1.98288e-014 -1.19271e-015
lhumerus -2.03551 0.607647 89.4701
lradius 36.0587
lwrist 10.0645
lhand -12.6332 36.5146
lfingers 7.12502
lthumb 13.4468 66.0605
rfemur -34.2274 -2.22347 19.7518
rtibia 35.3668
rfoot -7.43136 1.25635
rtoes -2.58467
lfemur 11.9657 -1.71422 -19.9452
ltibia 37.8546
lfoot 10.5054 -20.7106
ltoes 17.9199
50
root -18.3797 15.5378 -1.75264 168.02 85.258 164.616
lowerback -3.08972 -4.85971 -3.39713
upperback 1.00334 -6.3922 1.80805
thorax 3.34196 -3.27298 3.3489
lowerneck -9.06188 1.09648 3.99052
upperneck 2.9764 0.929094 2.03743
head 2.53001 0.600871 0.00950196
rclavicle 1.25234e-014 1.07344e-014
rhumerus -133.428 -35.5323 65.1832
rradius 9.12389
rwrist 123.205
rhand -19.226 37.6504
rfingers 7.12502
rthumb 7.08704 7.78904
lclavicle 1.25234e-014 1.07344e-014
lhumerus -2.67471 0.337105 89.6427
lradius 35.2718
lwrist 10.0374
lhand -12.5449 36.8076
lfingers 7.12502
lthumb 13.5318 66.3479
rfemur -33.6043 -2.53087 20.1865
rtibia 36.2412
rfoot -8.39737 0.294092
rtoes -3.65087
lfemur 10.5787 -1.52247 -19.774
ltibia 40.7955
lfoot 12.8402 -21.1401
ltoes 16.4019
51
root -18.1439 15.5607 -1.72803 171.01 85.2838 167.847
lowerback -2.95321 -4.72353 -3.26137
upperback 1.03228 -6.22106 1.88399
thorax 3.27404 -3.18525 3.37612
lowerneck -8.88832 1.00015 3.73278
upperneck 3.04107 0.819492 2.39241
head 2.5148 0.555893 0.162155
rclavicle 2.47238e-014 -2.22639e-014
rhumerus -129.812 -39.0464 59.0771
rradius 8.35216
rwrist 117.055
rhand -19.0916 37.9277
rfingers 7.12502
rthumb 7.2167 8.07073
lclavicle 2.47238e-014 -2.22639e-014
lhumerus -3.31775 0.425136 89.8674
lradius 34.3811
lwrist 9.76239
lhand -12.4775 36.7046
lfingers 7.12502
lthumb 13.5968 66.2405
rfemur -32.7171 -2.63506 20.7474
rtibia 36.8951
rfoot -9.01965 -0.508054
rtoes -4.50068
lfemur 9.31662 -1.21887 -19.3708
ltibia 43.6107
lfoot 14.3272 -21.0672
ltoes 14.6781
52
root -17.9051 15.5927 -1.70801 175.943 85.1591 173.121
lowerback -2.90208 -4.61785 -2.91637
upperback 1.21874 -6.09545 1.94311
thorax 3.39731 -3.12008 3.25156
lowerneck -8.98122 0.919979 3.76979
upperneck 3.15239 0.69251 2.57176
head 2.56846 0.503616 0.20823
rclavicle -6.85807e-015 -2.66371e-014
rhumerus -125.815 -42.2762 52.5122
rradius 7.64724
rwrist 110.954
rhand -19.5093 37.6086
rfingers 7.12502
rthumb 6.81352 7.73823
lclavicle -6.85807e-015 -2.66371e-014
lhumerus -3.7451 0.447752 90.0183
lradius 33.4159
lwrist 9.42815
lhand -12.4335 36.8009
lfingers 7.12502
lthumb 13.6392 66.334
rfemur -31.5363 -2.73577 21.3588
rtibia 37.2777
rfoot -9.56749 -0.975474
rtoes -5.33661
lfemur 8.09927 -1.16224 -18.808
ltibia 46.3366
lfoot 15.463 -19.8066
ltoes 11.8211
53
root -17.6734 15.6233 -1.69267 181.797 85.0963 179.24
lowerback -2.63098 -4.46295 -2.22619
upperback 1.14381 -5.91662 1.88383
thorax 3.07429 -3.01074 2.84988
lowerneck -8.85655 0.831467 4.02752
upperneck 3.4249 0.538628 2.6601
head 2.63749 0.439792 0.185197
rclavicle 8.47071e-014 -5.56597e-015
rhumerus -120.951 -44.8671 45.0224
rradius 7.20582
rwrist 105.029
rhand -19.9935 37.5094
rfingers 7.12502
rthumb 6.34606 7.62451
lclavicle 8.47071e-014 -5.56597e-015
lhumerus -4.67976 0.261552 89.9396
lradius 32.5095
lwrist 9.15007
lhand -12.3531 37.2846
lfingers 7.12502
lthumb 13.7167 66.8125
rfemur -30.3466 -2.69555 22.0247
rtibia 37.4429
rfoot -10.2296 -1.4618
rtoes -5.69108
lfemur 6.7977 -1.01749 -18.1365
ltibia 48.9673
lfoot 15.5298 -17.8428
ltoes 10.3516
54
root -17.4553 15.6402 -1.67393 188.376 85.2074 186.003
lowerback -2.44641 -4.23665 -1.86422
upperback 1.13537 -5.63359 2.17796
thorax 2.93685 -2.8632 2.98552
lowerneck -8.789 0.736252 3.79213
upperneck 3.44826 0.442129 2.59232
head 2.63118 0.384661 0.198975
rclavicle 6.71644e-014 -1.23246e-014
rhumerus -115.807 -47.8503 37.7239
rradius 7.15263
rwrist 99.2498
rhand -19.9588 37.5316
rfingers 7.12502
rthumb 6.37956 7.64765
lclavicle 6.71644e-014 -1.23246e-014
lhumerus -5.41902 0.656984 90.3962
lradius 31.5395
lwrist 8.38018
lhand -12.0096 37.494
lfingers 7.12502
lthumb 14.0478 66.9992
rfemur -29.2228 -2.4519 22.7872
rtibia 37.4225
rfoot -10.8678 -2.05687
rtoes -6.24967
lfemur 5.50027 -0.451677 -17.3644
ltibia 51.4974
lfoot 14.1762 -15.7954
ltoes 9.45323
55
root -17.2379 15.6611 -1.6524 195.312 85.5016 193.187
lowerback -2.31447 -3.93087 -1.13241
upperback 1.20667 -5.2472 2.09393
thorax 2.83422 -2.65449 2.52482
lowerneck -8.56419 0.653624 3.82448
upperneck 3.28709 0.339702 2.75557
head 2.53373 0.335684 0.239494
rclavicle -1.90585e-014 -3.18055e-015
rhumerus -110.416 -50.7073 29.6469
rradius 7.25919
rwrist 93.6212
rhand -19.6176 37.186
rfingers 7.12502
rthumb 6.70902 7.31231
lclavicle -1.90585e-014 -3.18055e-015
lhumerus -6.2248 0.738048 90.235
lradius 30.6211
lwrist 7.67314
lhand -11.7137 37.6074
lfingers 7.12502
lthumb 14.3329 67.0927
rfemur -27.9501 -2.05043 23.5209
rtibia 37.2314
rfoot -11.5212 -2.5672
rtoes -7.59972
lfemur 4.29321 0.279981 -16.7026
ltibia 53.8856
lfoot 12.276 -13.5313
ltoes 10.4255
56
root -17.0212 15.6922 -1.63067 201.503 85.2032 199.768
lowerback -2.2785 -3.83023 -0.756092
upperback 1.50211 -5.12989 2.27738
thorax 3.0963 -2.59225 2.50214
lowerneck -8.52503 0.607638 3.7855
upperneck 3.1044 0.291693 2.76822
head 2.46438 0.307602 0.247122
rclavicle 2.72335e-014 1.39149e-014
rhumerus -103.861 -53.3439 20.8224
rradius 7.25552
rwrist 88.0608
rhand -19.2406 37.196
rfingers 7.12502
rthumb 7.07295 7.33422
lclavicle 2.72335e-014 1.39149e-014
lhumerus -6.76557 1.06435 90.3146
lradius 29.705
lwrist 6.94323
lhand -11.5453 37.9142
lfingers 7.12502
lthumb 14.4952 67.3879
rfemur -26.4132 -1.97463 24.2921
rtibia 36.9178
rfoot -12.1147 -3.2347
rtoes -8.3106
lfemur 3.04009 0.450998 -15.9044
ltibia 56.0908
lfoot 10.2295 -11.2567
ltoes 16.3779
57
root -16.8105 15.7274 -1.60779 208.52 84.9192 206.954
lowerback -2.03127 -3.66117 -0.0803387
upperback 1.47067 -4.92098 2.30982
thorax 2.85882 -2.47211 2.19131
lowerneck -8.61556 0.54227 4.08435
upperneck 3.33772 0.16183 2.7223
head 2.56013 0.252476 0.175755
rclavicle 2.2736e-014 1.03368e-014
rhumerus -96.4787 -54.7657 10.9598
rradius 7.32995
rwrist 82.6094
rhand -18.9864 37.2931
rfingers 7.12502
rthumb 7.31826 7.43971
lclavicle 2.2736e-014 1.03368e-014
lhumerus -7.72526 1.5113 90.1892
lradius 28.687
lwrist 5.94529
lhand -11.5275 37.7886
lfingers 7.12502
lthumb 14.5123 67.261
rfemur -25.1043 -1.90113 25.1782
rtibia 36.482
rfoot -12.6374 -3.67849
rtoes -7.81285
lfemur 1.52401 0.654995 -15.0092
ltibia 58.0758
lfoot 8.62077 -8.7409
ltoes 20.8193
58
root -16.6058 15.7593 -1.59641 211.559 84.736 209.981
lowerback -1.8681 -3.6085 0.284591
upperback 1.27411 -4.85474 2.39984
thorax 2.53905 -2.43096 2.10348
lowerneck -8.28432 0.572779 4.13126
upperneck 3.36593 0.224278 2.48209
head 2.50867 0.272235 0.0926564
rclavicle 2.31087e-014 1.59028e-015
rhumerus -87.7261 -55.3538 0.129383
rradius 7.42045
rwrist 77.1805
rhand -18.5204 37.4611
rfingers 7.12502
rthumb 7.76805 7.62383
lclavicle 2.31087e-014 1.59028e-015
lhumerus -8.78511 2.99358 90.2118
lradius 27.369
lwrist 4.43336
lhand -11.7692 37.8575
lfingers 7.12502
lthumb 14.2794 67.3466
rfemur -23.9988 -2.04489 25.6449
rtibia 36.0198
rfoot -13.2514 -3.90166
rtoes -7.53326
lfemur -0.124878 0.649455 -14.6788
ltibia 59.6612
lfoot 6.76189 -7.00693
ltoes 21.6041
59
root -16.4057 15.781 -1.58835 213.625 84.6238 212.017
lowerback -1.77087 -3.50391 0.647129
upperback 1.12217 -4.71817 2.38526
thorax 2.29216 -2.35558 1.90608
lowerneck -7.68846 0.585445 4.14971
upperneck 3.06078 0.287675 2.3691
head 2.29646 0.288088 0.05419
rclavicle 2.34069e-014 -1.86858e-014
rhumerus -79.1144 -55.0714 -10.584
rradius 7.61195
rwrist 71.7311
rhand -18.362 37.5854
rfingers 7.12502
rthumb 7.92098 7.75377
lclavicle 2.34069e-014 -1.86858e-014
lhumerus -9.89471 4.42143 90.0777
lradius 26.1621
lwrist 2.99048
lhand -12.2107 38.4042
lfingers 7.12502
lthumb 13.8539 67.9228
rfemur -22.9038 -2.0242 25.964
rtibia 35.5105
rfoot -13.7411 -4.38321
rtoes -7.79454
lfemur -1.88772 0.64003 -14.5112
ltibia 60.9881
lfoot 5.03959 -6.2284
ltoes 23.1622
60
root -16.1711 15.8043 -1.59026 212.286 84.7707 210.864
lowerback -2.16741 -3.34831 0.690245
upperback 1.32917 -4.52322 2.19095
thorax 2.70259 -2.25626 1.6587
lowerneck -7.30958 0.59117 4.14886
upperneck 2.67702 0.32744 2.46843
head 2.09929 0.300088 0.0860096
rclavicle 9.87711e-015 5.96354e-015
rhumerus -70.6849 -54.4796 -21.0681
rradius 7.79778
rwrist 66.4097
rhand -18.756 37.3804
rfingers 7.12502
rthumb 7.54064 7.53484
lclavicle 9.87711e-015 5.96354e-015
lhumerus -10.8166 5.77832 89.8838
lradius 25.0814
lwrist 1.59729
lhand -12.7523 37.8521
lfingers 7.12502
lthumb 13.3319 67.4056
rfemur -21.434 -2.22462 25.7902
rtibia 35.0636
rfoot -14.4683 -4.81232
rtoes -8.06221
lfemur -3.15835 0.620133 -14.9168
ltibia 61.9148
lfoot 2.63441 -6.05935
ltoes 21.6105
61
root -15.9776 15.8243 -1.57161 220.787 84.7221 219.488
lowerback -1.85868 -3.15388 1.0611
upperback 1.29938 -4.2672 2.51937
thorax 2.49006 -2.12252 1.82109
lowerneck -7.70505 0.676034 3.93213
upperneck 3.04149 0.427185 2.40385
head 2.29334 0.355006 0.108587
rclavicle -5.19573e-014 -1.98785e-015
rhumerus -62.0404 -52.8365 -31.3254
rradius 7.93302
rwrist 61.062
rhand -19.2044 37.1664
rfingers 7.12502
rthumb 7.1078 7.30573
lclavicle -5.19573e-014 -1.98785e-015
lhumerus -11.8234 7.85316 89.8061
lradius 23.801
lwrist -0.072871
lhand -13.186 37.6769
lfingers 7.12502
lthumb 12.9138 67.2573
rfemur -20.3255 -1.44869 26.6298
rtibia 34.6542
rfoot -14.6321 -5.31078
rtoes -7.2632
lfemur -4.80533 1.1371 -14.126
ltibia 62.7878
lfoot 0.044247 -6.84756
ltoes 21.0798
62
root -15.7828 15.8425 -1.54274 222.545 84.4614 221.038
lowerback -1.9739 -3.09933 1.18568
upperback 1.24699 -4.19976 2.54491
thorax 2.49205 -2.0865 1.776
lowerneck -8.35659 0.687395 4.16638
upperneck 3.444 0.380934 2.15971
head 2.55095 0.340407 -0.00933882
rclavicle 2.29472e-014 -3.37934e-015
rhumerus -54.6479 -50.4651 -40.625
rradius 8.21186
rwrist 55.5464
rhand -19.5041 36.5327
rfingers 7.12502
rthumb 6.81851 6.66245
lclavicle 2.29472e-014 -3.37934e-015
lhumerus -12.7081 9.668 89.3004
lradius 22.4375
lwrist -1.6655
lhand -13.5531 38.4521
lfingers 7.12502
lthumb 12.56 68.0545
rfemur -19.587 -0.902107 27.1028
rtibia 34.3436
rfoot -14.7788 -5.95474
rtoes -6.96315
lfemur -6.86461 1.22998 -13.7271
ltibia 63.452
lfoot -2.79743 -7.94436
ltoes 19.3996
